<?xml version="1.0" encoding="UTF-8" standalone="no"?>
<svg
   width="48"
   height="48"
   version="1.1"
   id="svg7"
   sodipodi:docname="weather-freezing-scattered-rain-storm-day-symbolic.svg"
   inkscape:version="1.4.4 (unknown)"
   xmlns:inkscape="http://www.inkscape.org/namespaces/inkscape"
   xmlns:sodipodi="http://sodipodi.sourceforge.net/DTD/sodipodi-0.dtd"
   xmlns="http://www.w3.org/2000/svg"
   xmlns:svg="http://www.w3.org/2000/svg">
  <defs
     id="defs7" />
  <sodipodi:namedview
     id="namedview7"
     pagecolor="#ffffff"
     bordercolor="#000000"
     borderopacity="0.25"
     inkscape:showpageshadow="2"
     inkscape:pageopacity="0.0"
     inkscape:pagecheckerboard="0"
     inkscape:deskcolor="#d1d1d1"
     inkscape:zoom="8.0520833"
     inkscape:cx="7.5756792"
     inkscape:cy="36.574386"
     inkscape:window-width="1920"
     inkscape:window-height="994"
     inkscape:window-x="0"
     inkscape:window-y="0"
     inkscape:window-maximized="1"
     inkscape:current-layer="svg7" />
  <style
     id="current-color-scheme"
     type="text/css">.ColorScheme-Text {
    color:#232629;
  }</style>
  <g
     id="g1"
     transform="translate(14.154873,-54.260325)">
    <path
       id="lightning"
       d="m 11.310328,76.023286 -3.4144996,9 h 3.2441996 l -5.2441996,13 h 0.3171 l 9.6828996,-15 h -3.841 l 3.841,-7 z"
       fill="currentColor"
       style="color:#232629;fill:#f1f2f3;fill-opacity:1;stroke-linejoin:bevel" />
    <path
       id="cloud"
       d="m 16.895328,84.023286 h 5 a 7,7 0 0 0 0.95,-13.92 9,9 0 0 0 -8.95,-8.08 9,9 0 0 0 -8.3599996,12.31 5,5 0 1 0 -1.63,9.69 h 2"
       fill="none"
       stroke="currentColor"
       stroke-width="2"
       style="color:#232629;stroke:#f1f3f3;stroke-linejoin:bevel;stroke-opacity:1" />
    <path
       d="m 18.895328,91.023286 -3,3 3,3 3,-3 z"
       fill="currentColor"
       id="path1"
       style="color:#232629;fill:#f1f2f3;fill-opacity:1;stroke-linejoin:bevel" />
    <path
       d="m 2.8953284,86.023286 -2.99999997,3 2.99999997,3 3,-3 z"
       fill="currentColor"
       id="path2"
       style="color:#232629;fill:#f1f2f3;fill-opacity:1;stroke-linejoin:bevel" />
    <path
       d="m -5.1046716,92.023286 a 2,2.0711 0 0 0 0,2.9289 2,2.0711 0 0 0 2.8284,0 2,2.0711 0 0 0 0,-2.9289 l -1.4142,-1.4645 z"
       stroke-width="1.0176"
       class="ColorScheme-Text"
       fill="currentColor"
       id="path3"
       style="fill:#f1f2f3;fill-opacity:1;stroke-linejoin:bevel" />
    <path
       d="m 22.895328,88.023286 a 2,2.0711 0 0 0 0,2.9289 2,2.0711 0 0 0 2.8284,0 2,2.0711 0 0 0 0,-2.9289 l -1.4142,-1.4645 z"
       stroke-width="1.0176"
       class="ColorScheme-Text"
       fill="currentColor"
       id="path4"
       style="fill:#f1f2f3;fill-opacity:1;stroke-linejoin:bevel" />
    <path
       d="m -10.104672,74.023286 h 5.0000004"
       fill="none"
       stroke="currentColor"
       stroke-width="2"
       id="path8"
       style="color:#232629;fill:#f1f2f3;fill-opacity:1;stroke:#f1f3f3;stroke-linejoin:bevel;stroke-opacity:1" />
    <use
       transform="rotate(36,5.8953281,74.023286)"
       href="#path8"
       id="use4"
       style="color:#232629;fill:#f1f2f3;fill-opacity:1;stroke:#f1f3f3;stroke-linejoin:bevel;stroke-opacity:1" />
    <use
       transform="rotate(72,5.8953281,74.023287)"
       href="#path8"
       id="use5"
       style="color:#232629;fill:#f1f2f3;fill-opacity:1;stroke:#f1f3f3;stroke-linejoin:bevel;stroke-opacity:1" />
    <use
       transform="rotate(108,5.8953288,74.023286)"
       href="#path8"
       id="use6"
       style="color:#232629;stroke-linejoin:bevel" />
    <use
       transform="rotate(-36,5.8953284,74.023286)"
       href="#path8"
       id="use7"
       style="color:#232629;fill:#f1f2f3;fill-opacity:1;stroke:#f1f3f3;stroke-linejoin:bevel;stroke-opacity:1" />
    <path
       id="path5"
       d="m -1.2046716,79.623286 a 9,9 0 0 1 8.3,-14.52"
       stroke="currentColor"
       stroke-width="2"
       fill="none"
       style="color:#232629;stroke:#f1f3f3;stroke-linejoin:bevel;stroke-opacity:1" />
  </g>
</svg>
