<?xml version="1.0" encoding="UTF-8" standalone="no"?>
<svg
   width="48"
   height="48"
   version="1.1"
   id="svg1"
   sodipodi:docname="weather-clouds-wind-night-symbolic.svg"
   inkscape:version="1.4.4 (unknown)"
   xmlns:inkscape="http://www.inkscape.org/namespaces/inkscape"
   xmlns:sodipodi="http://sodipodi.sourceforge.net/DTD/sodipodi-0.dtd"
   xmlns="http://www.w3.org/2000/svg"
   xmlns:svg="http://www.w3.org/2000/svg">
  <defs
     id="defs1" />
  <sodipodi:namedview
     id="namedview1"
     pagecolor="#ffffff"
     bordercolor="#000000"
     borderopacity="0.25"
     inkscape:showpageshadow="2"
     inkscape:pageopacity="0.0"
     inkscape:pagecheckerboard="0"
     inkscape:deskcolor="#d1d1d1"
     inkscape:zoom="6.6666667"
     inkscape:cx="25.35"
     inkscape:cy="46.275"
     inkscape:window-width="1920"
     inkscape:window-height="994"
     inkscape:window-x="0"
     inkscape:window-y="0"
     inkscape:window-maximized="1"
     inkscape:current-layer="svg1" />
  <style
     id="current-color-scheme"
     type="text/css">
  .ColorScheme-Text {
    color:#232629;
  }
 </style>
  <g
     id="g1"
     transform="translate(-3.1055043,-54.254731)">
    <path
       d="m 17.15,80.75 a 14,14 0 0 1 4.4,-20 15,15 0 0 0 -9.1,24.7"
       fill="none"
       stroke="currentColor"
       stroke-width="2"
       id="path1"
       style="color:#232629;stroke:#f1f3f3;stroke-linejoin:bevel;stroke-opacity:1" />
    <path
       class="ColorScheme-Text"
       id="cloud"
       d="m 36.55,90.75 h 2 A 7,7 0 0 0 39.5,76.83 h -3 a 9,9 0 0 0 -8.95,-8.08 9,9 0 0 0 -8.36,12.31 5,5 0 1 0 -1.63,9.69 h 1"
       fill="none"
       stroke="currentColor"
       stroke-width="2"
       style="stroke:#f1f3f3;stroke-linejoin:bevel;stroke-opacity:1" />
    <path
       id="wind1"
       class="ColorScheme-Text"
       d="m 20.55,83.75 h 11 a 3,3 0 1 0 -3,-3"
       stroke="currentColor"
       stroke-width="2"
       fill="none"
       style="stroke:#f1f2f3;stroke-linejoin:bevel;stroke-opacity:1" />
    <path
       id="wind2"
       class="ColorScheme-Text"
       d="m 17.55,86.75 h 22 a 3,3 0 1 0 -3,-3"
       stroke="currentColor"
       stroke-width="2"
       fill="none"
       style="stroke:#f1f2f3;stroke-linejoin:bevel;stroke-opacity:1" />
    <path
       id="wind3"
       class="ColorScheme-Text"
       d="m 19.55,89.75 h 12 a 3,3 0 1 1 -3,3"
       stroke="currentColor"
       stroke-width="2"
       fill="none"
       style="stroke:#f1f2f3;stroke-linejoin:bevel;stroke-opacity:1" />
  </g>
</svg>
