<?xml version="1.0" encoding="UTF-8" standalone="no"?>
<svg
   width="48"
   height="48"
   version="1.1"
   id="svg5"
   sodipodi:docname="weather-freezing-scattered-rain-storm-night-symbolic.svg"
   inkscape:version="1.4.4 (unknown)"
   xmlns:inkscape="http://www.inkscape.org/namespaces/inkscape"
   xmlns:sodipodi="http://sodipodi.sourceforge.net/DTD/sodipodi-0.dtd"
   xmlns="http://www.w3.org/2000/svg"
   xmlns:svg="http://www.w3.org/2000/svg">
  <defs
     id="defs5" />
  <sodipodi:namedview
     id="namedview5"
     pagecolor="#ffffff"
     bordercolor="#000000"
     borderopacity="0.25"
     inkscape:showpageshadow="2"
     inkscape:pageopacity="0.0"
     inkscape:pagecheckerboard="0"
     inkscape:deskcolor="#d1d1d1"
     inkscape:zoom="6.6666667"
     inkscape:cx="37.2"
     inkscape:cy="43.275"
     inkscape:window-width="1920"
     inkscape:window-height="994"
     inkscape:window-x="0"
     inkscape:window-y="0"
     inkscape:window-maximized="1"
     inkscape:current-layer="svg5"
     showguides="false" />
  <style
     id="current-color-scheme"
     type="text/css">.ColorScheme-Text {
    color:#232629;
  }</style>
  <g
     id="g1"
     transform="translate(0.08967696,0.24353758)">
    <path
       id="lightning"
       d="m 25.415,22 -3.4145,9 h 3.2442 l -5.2442,13 h 0.3171 l 9.6829,-15 h -3.841 l 3.841,-7 z"
       fill="currentColor"
       style="color:#232629;fill:#f1f3f3;fill-opacity:1;stroke-width:2;stroke-linejoin:bevel" />
    <path
       d="m 34,37 -3,3 3,3 3,-3 z"
       fill="currentColor"
       id="path1"
       style="color:#232629;fill:#f1f3f3;fill-opacity:1;stroke-width:2;stroke-linejoin:bevel" />
    <path
       d="m 17,32 -3,3 3,3 3,-3 z"
       fill="currentColor"
       id="path2"
       style="color:#232629;fill:#f1f3f3;fill-opacity:1;stroke-width:2;stroke-linejoin:bevel" />
    <path
       d="m 9,38 a 2,2.0711 0 0 0 0,2.9289 2,2.0711 0 0 0 2.8284,0 2,2.0711 0 0 0 0,-2.9289 l -1.4142,-1.4645 z"
       fill="currentColor"
       id="path3"
       style="color:#232629;fill:#f1f3f3;fill-opacity:1;stroke-width:2;stroke-linejoin:bevel" />
    <path
       d="m 37,34 a 2,2.0711 0 0 0 0,2.9289 2,2.0711 0 0 0 2.8284,0 2,2.0711 0 0 0 0,-2.9289 l -1.4142,-1.4645 z"
       fill="currentColor"
       id="path4"
       style="color:#232629;fill:#f1f3f3;fill-opacity:1;stroke-width:2;stroke-linejoin:bevel" />
    <path
       d="M 13,21.5 C 9.72138,16.038258 10.543327,9.0517073 15,4.5 2.9743192,6.4524474 1.1746507,23.009397 12.5,27.5"
       fill="none"
       stroke="currentColor"
       stroke-width="2"
       id="path5"
       style="color:#232629;stroke:#f1f2f3;stroke-linejoin:bevel;stroke-opacity:1"
       sodipodi:nodetypes="ccc" />
    <path
       id="cloud"
       d="m 31,30 h 5 c 3.641962,-0.05231 6.635223,-2.888774 6.883225,-6.522657 C 43.131228,19.84346 40.551086,16.626625 36.95,16.08 36.478423,11.490907 32.613259,8.0014631 28,8 21.651695,8.0065 17.30523,14.406623 19.64,20.31 16.700109,19.225518 13.498641,21.081474 12.978838,24.17159 12.459036,27.261705 14.877094,30.062949 18.01,30 h 2"
       fill="none"
       stroke="currentColor"
       stroke-width="2"
       style="color:#232629;stroke:#f2f3f4;stroke-linejoin:bevel;stroke-opacity:1"
       sodipodi:nodetypes="ccscccscc" />
  </g>
</svg>
