<?xml version="1.0" encoding="UTF-8" standalone="no"?>
<svg
   enable-background="new"
   viewBox="0 0 48 48"
   version="1.1"
   id="svg2"
   sodipodi:docname="weather-severe-alert-symbolic.svg"
   inkscape:version="1.4.4 (unknown)"
   xmlns:inkscape="http://www.inkscape.org/namespaces/inkscape"
   xmlns:sodipodi="http://sodipodi.sourceforge.net/DTD/sodipodi-0.dtd"
   xmlns="http://www.w3.org/2000/svg"
   xmlns:svg="http://www.w3.org/2000/svg">
  <defs
     id="defs2" />
  <sodipodi:namedview
     id="namedview2"
     pagecolor="#ffffff"
     bordercolor="#000000"
     borderopacity="0.25"
     inkscape:showpageshadow="2"
     inkscape:pageopacity="0.0"
     inkscape:pagecheckerboard="0"
     inkscape:deskcolor="#d1d1d1"
     inkscape:zoom="3.9427083"
     inkscape:cx="30.943197"
     inkscape:cy="25.997358"
     inkscape:window-width="1920"
     inkscape:window-height="994"
     inkscape:window-x="0"
     inkscape:window-y="0"
     inkscape:window-maximized="1"
     inkscape:current-layer="svg2" />
  <path
     d="m 24.000001,11.988 a 10.01,10.01 0 0 1 9.8497,8.2309 8.008,8.008 0 0 1 6.166297,7.7851 8.008,8.008 0 0 1 -8.007997,8.008 h -18.018 A 6.006,6.006 0 0 1 7.9840015,30.006 6.006,6.006 0 0 1 13.990001,24 a 6.006,6.006 0 0 1 0.21506,0.0121 10.01,10.01 0 0 1 -0.21506,-2.0137 10.01,10.01 0 0 1 10.01,-10.01 z"
     id="path2-3"
     style="color:#f1f3f3;fill:currentColor;fill-opacity:1;stroke:#f2f2f2;stroke-width:2;stroke-linejoin:bevel;stroke-opacity:1"
     class="ColorScheme-Text" />
  <path
     d="m 22,24.862616 0.5,12 h 3 l 0.5,-12 z m 0,14 v 4 h 4 v -4 z"
     color="#eceff4"
     fill="#bf616a"
     id="path2-7" />
</svg>
